<?xml version="1.0" encoding="utf-8"?>
<!-- Generator: Adobe Illustrator 18.1.0, SVG Export Plug-In . SVG Version: 6.00 Build 0)  -->
<svg version="1.1" id="Calque_1" xmlns="http://www.w3.org/2000/svg" xmlns:xlink="http://www.w3.org/1999/xlink" x="0px" y="0px"
	 viewBox="0 0 141.7 85" enable-background="new 0 0 141.7 85" xml:space="preserve">
<path fill="#0492D0" d="M33.3,53.8h73.5v1c0,0.8,0.9,1.2,1.6,0.9l3.6-1.9c0.7-0.4,0.7-1.3,0-1.7l-3.6-1.9c-0.7-0.4-1.6,0.1-1.6,0.9
	v1H40.5c0,0,0,0,0,0h-7.2v-1c0-0.8-0.9-1.3-1.6-0.9l-3.6,2c-0.7,0.4-0.7,1.4,0,1.8l3.6,2c0.7,0.4,1.6-0.1,1.6-0.9V53.8L33.3,53.8z"
	/>
<g>
	<path fill-rule="evenodd" clip-rule="evenodd" fill="#1E1E1C" d="M125.4,38.2l-0.5-7.9c-0.8-0.3-2.3-4.3-4.4-4.3
		c-2,0-6.1,0.9-6.1,0.9v0.3c-13.8,0.3-70.6,1.6-73.9,2.9c-8.3,3.2-22.1,19.9-24,23.7c-0.9,1.7,2,2.5,3.9,0.2
		c1.8-2.2,10.2-18.1,22.1-22c2.8-0.9,60.4-2.6,71.9-2v3.7c0,0,0.2,3.5,0.2,6.7c0.1,8.4,1.7,18.6,6.5,18.6
		C125.8,59,125.4,38.2,125.4,38.2z M120.8,56.1c-3.1,0-3.4-9.7-3.4-15.4c0-5.7-0.1-11,2.7-11c2.6,0,4.2,4.2,4.2,10.9
		C124.2,47.3,123.9,56.1,120.8,56.1z"/>
</g>
</svg>
