<?xml version="1.0" encoding="utf-8"?>
<!-- Generator: Adobe Illustrator 18.1.0, SVG Export Plug-In . SVG Version: 6.00 Build 0)  -->
<svg version="1.1" id="Calque_1" xmlns="http://www.w3.org/2000/svg" xmlns:xlink="http://www.w3.org/1999/xlink" x="0px" y="0px"
	 viewBox="0 0 141.7 85" enable-background="new 0 0 141.7 85" xml:space="preserve">
<g>
	<g>
		<g>
			<path fill="#1E1E1C" d="M95.3,26c-7.3,0-12.9,4-15.8,4.3c-2.9,0.3-8.6,0.4-8.6,0.4s-5.8-0.1-8.6-0.4C59.4,30,53.8,26,46.5,26
				c-7.3,0-22.1,0.9-22.1,0.9v6.7c0,0,3.4,3.5,4.5,6.7C29.9,43.7,31.5,59,48.6,59c17.1,0,19-20.8,19-20.8s1.6-0.4,3.3-0.4
				c1.7,0,3.3,0.4,3.3,0.4s2,20.8,19,20.8c17.1,0,18.6-15.3,19.7-18.6c1.1-3.3,4.5-6.7,4.5-6.7v-6.7C117.4,26.9,102.6,26,95.3,26z
				 M27.3,34.1c-0.5,0-0.8-0.4-0.8-0.9v-0.9c0-0.5,0.4-0.9,0.8-0.9h3.9c0.5,0,0.8,0.4,0.8,0.9v0.9c0,0.5-0.4,0.9-0.8,0.9H27.3z
				 M47.4,57.1c-11.3,0-16-10.7-16-16.4c0-5.7,3.2-11,13.4-11c9.4,0,18.6,4.2,18.6,10.9C63.4,47.3,58.7,57.1,47.4,57.1z M93.8,57.1
				c-11.3,0-16.1-9.8-16.1-16.6c0-6.7,9.2-10.9,18.6-10.9c10.2,0,13.4,5.3,13.4,11C109.7,46.4,105.1,57.1,93.8,57.1z M115.3,33.2
				c0,0.5-0.4,0.9-0.8,0.9h-3.9c-0.5,0-0.8-0.4-0.8-0.9v-0.9c0-0.5,0.4-0.9,0.8-0.9h3.9c0.5,0,0.8,0.4,0.8,0.9V33.2z"/>
		</g>
	</g>
</g>
<g>
	<path fill="#0492D0" d="M76,57v-1c0-0.8,0.9-1.2,1.6-0.9l3.6,1.9c0.7,0.4,0.7,1.3,0,1.7l-3.6,1.9c-0.7,0.4-1.6-0.1-1.6-0.9l0-0.9
		l-10.4,0v1c0,0.8-0.9,1.3-1.6,0.9l-3.6-2c-0.7-0.4-0.7-1.4,0-1.8l3.6-2c0.7-0.4,1.6,0.1,1.6,0.9v1L76,57z"/>
</g>
</svg>
